<?xml version="1.0" ?>
<!DOCTYPE svg  PUBLIC '-//W3C//DTD SVG 1.1//EN'  'http://www.w3.org/Graphics/SVG/1.1/DTD/svg11.dtd'>
<!-- Uploaded to: SVG Repo, www.svgrepo.com, Generator: SVG Repo Mixer Tools -->
<svg fill="#000000" width="800px" height="800px" viewBox="0 0 846.66 846.66" style="shape-rendering:geometricPrecision; text-rendering:geometricPrecision; image-rendering:optimizeQuality; fill-rule:evenodd; clip-rule:evenodd" version="1.1" xml:space="preserve" xmlns="http://www.w3.org/2000/svg" xmlns:xlink="http://www.w3.org/1999/xlink">
<defs>
<style type="text/css">
   <![CDATA[
    .fil0 {fill:black;fill-rule:nonzero}
   ]]>
  </style>
</defs>
<g id="Layer_x0020_1">
<path class="fil0" d="M27.36 178.98l135.03 0c11.5,0 20.82,9.32 20.82,20.82l0 32.1 24.05 0 0 -44.87c0,-11.5 9.32,-20.82 20.82,-20.82l100.36 0c11.5,0 20.82,9.32 20.82,20.82l0 44.87 119.69 0c11.49,0 20.82,9.32 20.82,20.82l0 70.41 7.63 0 0 -44.87c0,-11.49 9.32,-20.82 20.82,-20.82l100.36 0c11.5,0 20.82,9.33 20.82,20.82l0 44.87 24.05 0 0 -32.09c0,-11.5 9.32,-20.82 20.82,-20.82l135.03 0c11.5,0 20.82,9.32 20.82,20.82l0 233.56c0,85.76 -70.09,155.85 -155.85,155.85 -11.5,0 -20.82,-9.32 -20.82,-20.82l0 -32.09 -285.74 0c-11.49,0 -20.82,-9.33 -20.82,-20.82l0 -70.42 -173.68 0 0 32.09c0,11.5 -9.32,20.82 -20.82,20.82 -85.76,0 -155.85,-70.08 -155.85,-155.85l0 -233.56c0,-11.5 9.32,-20.82 20.82,-20.82zm420.77 164.35l-58.57 0c-27.38,0 -27.38,-41.64 0,-41.64l58.57 0 0 -28.16 -119.69 0c-11.49,0 -20.82,-9.32 -20.82,-20.81l0 -44.88 -58.72 0 0 44.88c0,11.49 -9.32,20.81 -20.82,20.81l-44.87 0 0 221.13 264.92 0 0 -28.16 -58.57 0c-27.38,0 -27.38,-41.64 0,-41.64l58.57 0 0 -19.94 -58.57 0c-27.38,0 -27.38,-41.64 0,-41.64l58.57 0 0 -19.95zm41.64 21.44c0,50.24 0,100.47 0,150.71 0,11.5 -9.33,20.82 -20.82,20.82l-70.42 0 0 49.6 264.92 0 0 -221.13 -44.87 0c-11.5,0 -20.82,-9.32 -20.82,-20.82l0 -44.87 -58.72 0 0 44.87c0,11.5 -9.33,20.82 -20.82,20.82l-28.45 0zm308.71 -52.92l-93.39 0 0 325.04c53.74,-10.02 93.39,-57.43 93.39,-112.29l0 -212.75zm-656.91 -91.23l-93.39 0 0 212.74c0,54.86 39.65,102.27 93.39,112.29l0 -292.93 0 -32.1z"/>
</g>
</svg>